<?xml version="1.0" encoding="UTF-8" standalone="no"?>
<!-- Created with Inkscape (http://www.inkscape.org/) -->

<svg
   xmlns:dc="http://purl.org/dc/elements/1.1/"
   xmlns:cc="http://creativecommons.org/ns#"
   xmlns:rdf="http://www.w3.org/1999/02/22-rdf-syntax-ns#"
   xmlns:svg="http://www.w3.org/2000/svg"
   xmlns="http://www.w3.org/2000/svg"
   xmlns:sodipodi="http://sodipodi.sourceforge.net/DTD/sodipodi-0.dtd"
   xmlns:inkscape="http://www.inkscape.org/namespaces/inkscape"
   id="svg2"
   version="1.1"
   inkscape:version="0.91 r13725"
   xml:space="preserve"
   width="1781.9625"
   height="232.5"
   viewBox="0 0 1781.9625 232.5"
   sodipodi:docname="MRF Logo - 4c 2016 - 7.svg"><metadata
     id="metadata8"><rdf:RDF><cc:Work
         rdf:about=""><dc:format>image/svg+xml</dc:format><dc:type
           rdf:resource="http://purl.org/dc/dcmitype/StillImage" /><dc:title></dc:title></cc:Work></rdf:RDF></metadata><defs
     id="defs6"><clipPath
       clipPathUnits="userSpaceOnUse"
       id="clipPath16"><path
         d="m 0,186 1425.574,0 0,-186 L 0,0 0,186 Z"
         id="path18"
         inkscape:connector-curvature="0" /></clipPath></defs><sodipodi:namedview
     pagecolor="#ffffff"
     bordercolor="#666666"
     borderopacity="1"
     objecttolerance="10"
     gridtolerance="10"
     guidetolerance="10"
     inkscape:pageopacity="0"
     inkscape:pageshadow="2"
     inkscape:window-width="1920"
     inkscape:window-height="1031"
     id="namedview4"
     showgrid="false"
     inkscape:zoom="0.71426429"
     inkscape:cx="667.66567"
     inkscape:cy="38.880414"
     inkscape:window-x="0"
     inkscape:window-y="25"
     inkscape:window-maximized="1"
     inkscape:current-layer="g10" /><g
     id="g10"
     inkscape:groupmode="layer"
     inkscape:label="MRF Logo - 4c 2016 - 7"
     transform="matrix(1.25,0,0,-1.25,0,232.5)"><g
       id="g12"><g
         id="g14"
         clip-path="url(#clipPath16)"><g
           id="g20"
           transform="translate(417.8056,93.0518)"><path
             d="m 0,0 -12.264,0 0,23 L 0,23 C 12,23 12,19.396 12,11.502 12,3.604 12,0 0,0 M 29.488,-8.41 C 34,-1.092 34,6.791 34,11.502 34,16.213 34,24.096 29.488,31.412 25.665,37.611 17.446,45 0,45 l -11.15,0 -0.002,0.004 -24.594,0 1.482,-2.965 0,-87.039 22,0 0,23 9.991,0 11.494,-23.01 24.593,0 -13.782,27.588 c 4.607,2.608 7.57,5.953 9.456,9.012"
             style="fill:#3a9d8e;fill-opacity:1;fill-rule:nonzero;stroke:none"
             id="path22"
             inkscape:connector-curvature="0" /></g><g
           id="g24"
           transform="translate(677.7361,138.0556)"><path
             d="m 0,0 -20.86,-30.918 0,30.914 -4.631,0 0.01,0.004 -19.254,0 -0.074,-0.035 1.949,-3.971 0,-82.146 -1.895,-3.862 18.977,0 -0.02,0.01 4.938,0 0,19.748 3.186,4.723 14.982,-24.481 25.792,0 L -4.149,-45.486 26.54,0 0,0 Z"
             style="fill:#3a9d8e;fill-opacity:1;fill-rule:nonzero;stroke:none"
             id="path26"
             inkscape:connector-curvature="0" /></g><g
           id="g28"
           transform="translate(622.866,106.9444)"><path
             d="m 0,0 c -0.065,4.783 -0.565,11.615 -4.435,18.059 -3.823,6.363 -12.051,13.949 -29.555,13.949 l -8.043,0 c -17.504,0 -25.734,-7.586 -29.557,-13.949 -4.443,-7.403 -4.443,-15.321 -4.443,-20.051 l 0,-23.904 c 0,-4.731 0,-12.649 4.445,-20.051 3.821,-6.364 12.051,-13.949 29.555,-13.949 l 8.043,0 c 17.504,0 25.732,7.585 29.555,13.949 3.867,6.439 4.369,13.269 4.435,18.051 l -23.227,0 1.137,-2.321 c -0.385,-5.111 -2.306,-7.679 -11.9,-7.679 l -8.043,0 c -12,0 -12,4.011 -12,12 l 0,23.904 c 0,7.99 0,12 12,12 l 8.043,0 c 9.601,0 11.518,-2.571 11.902,-7.69 L -23.227,0 0,0 Z"
             style="fill:#3a9d8e;fill-opacity:1;fill-rule:nonzero;stroke:none"
             id="path30"
             inkscape:connector-curvature="0" /></g><g
           id="g32"
           transform="translate(513.8748,81.1514)"><path
             d="m 0,0 c 0,-7.988 0,-12 -12,-12 l -6.043,0 c -12,0 -12,4.012 -12,12 l 0,23.701 c 0,7.99 0,12 12,12 l 6.043,0 c 12,0 12,-4.01 12,-12 L 0,0 Z M 17.556,43.752 C 13.733,50.115 5.504,57.701 -12,57.701 l -6.043,0 c -17.504,0 -25.733,-7.586 -29.556,-13.949 -4.444,-7.402 -4.444,-15.32 -4.444,-20.051 l 0,-23.701 c 0,-4.73 0,-12.648 4.444,-20.051 C -43.776,-26.414 -35.547,-34 -18.043,-34 l 6.043,0 c 17.504,0 25.733,7.586 29.556,13.949 C 22,-12.648 22,-4.73 22,0 l 0,23.701 c 0,4.731 0,12.649 -4.444,20.051"
             style="fill:#3a9d8e;fill-opacity:1;fill-rule:nonzero;stroke:none"
             id="path34"
             inkscape:connector-curvature="0" /></g><g
           id="g36"
           transform="translate(298.9402,138.0517)"><path
             d="m 0,0 -22,0 0,-51.846 -32.134,51.85 -25.882,0 1.783,-2.875 0,-87.129 22,0 0,51.631 32.004,-51.641 25.881,0 L 0,-87.344 0,0 Z"
             style="fill:#3a9d8e;fill-opacity:1;fill-rule:nonzero;stroke:none"
             id="path38"
             inkscape:connector-curvature="0" /></g><g
           id="g40"
           transform="translate(119.7098,102.6651)"><path
             d="m 0,0 -22.035,35.391 -25.915,0 1.583,-2.541 0,-87.473 22,0 0,52.137 15.029,-24.139 18.676,0 14.328,23.014 0,-51.012 22,0 0,86.346 2.283,3.668 -25.914,0 L 0,0 Z"
             style="fill:#3a9d8e;fill-opacity:1;fill-rule:nonzero;stroke:none"
             id="path42"
             inkscape:connector-curvature="0" /></g><path
           d="m 316.339,48.052 22,0 0,90 -22,0 0,-90 z"
           style="fill:#3a9d8e;fill-opacity:1;fill-rule:nonzero;stroke:none"
           id="path44"
           inkscape:connector-curvature="0" /><path
           d="m 180.876,48.052 22,0 0,90 -22,0 0,-90 z"
           style="fill:#3a9d8e;fill-opacity:1;fill-rule:nonzero;stroke:none"
           id="path46"
           inkscape:connector-curvature="0" /><g
           id="g48"
           transform="translate(846.868,138.0556)"><path
             d="m 0,0 -24.594,0 1.602,-3.205 0,-83.492 -1.656,-3.317 24.592,0 0.005,0.01 42.936,0 0,22 -43.877,0 0,9 35.373,0 0,22 -35.373,0 0,15 43.877,0 0,22 -42.883,0 L 0,0 Z"
             style="fill:#3a9d8e;fill-opacity:1;fill-rule:nonzero;stroke:none"
             id="path50"
             inkscape:connector-curvature="0" /></g><g
           id="g52"
           transform="translate(766.9168,138.0556)"><path
             d="m 0,0 -24.593,0 1.552,-3.105 0,-86.899 22,0 0,31 33.373,0 0,22 -33.373,0 0,15 43.877,0 0,22 -42.833,0 L 0,0 Z"
             style="fill:#3a9d8e;fill-opacity:1;fill-rule:nonzero;stroke:none"
             id="path54"
             inkscape:connector-curvature="0" /></g><path
           d="m 1053.182,48.052 22,0 0,90 -22,0 0,-90 z"
           style="fill:#3a9d8e;fill-opacity:1;fill-rule:nonzero;stroke:none"
           id="path56"
           inkscape:connector-curvature="0" /><g
           id="g58"
           transform="translate(1160.8055,138.0556)"><path
             d="M 0,0 -22.935,0 -37.336,-48.895 -51.386,0 l -22.89,0 25.354,-88.232 -0.524,-1.782 23.926,0 -0.49,1.707 L 0,0 Z"
             style="fill:#3a9d8e;fill-opacity:1;fill-rule:nonzero;stroke:none"
             id="path60"
             inkscape:connector-curvature="0" /></g><g
           id="g62"
           transform="translate(974.0009,116.0518)"><path
             d="m 0,0 21.185,0 0,-68 22,0 0,68 21.186,0 0,22 L 0,22 0,0 Z"
             style="fill:#3a9d8e;fill-opacity:1;fill-rule:nonzero;stroke:none"
             id="path64"
             inkscape:connector-curvature="0" /></g><g
           id="g66"
           transform="translate(1188.1531,79.9521)"><path
             d="M 0,0 5.469,18.125 10.937,0 0,0 Z m 16.959,56.207 0.572,1.897 -24.125,0 0.573,-1.897 -26.586,-88.117 22.98,0 2.99,9.91 24.211,0 2.991,-9.91 22.98,0 -26.586,88.117 z"
             style="fill:#3a9d8e;fill-opacity:1;fill-rule:nonzero;stroke:none"
             id="path68"
             inkscape:connector-curvature="0" /></g><g
           id="g70"
           transform="translate(954.031,98.0556)"><path
             d="m 0,0 c -6.147,3.607 -12.892,4.893 -16.921,5.662 -0.482,0.092 -0.926,0.176 -1.32,0.256 l -1.136,0.228 c -10.569,2.09 -12.944,4.385 -13.077,7.374 0.453,3.308 4.915,5.277 11.994,5.277 10.085,0 10.986,-4.139 11.583,-6.877 l 21.496,4.682 C 9.271,31.979 -2.788,40.797 -20.46,40.797 c -27.892,0 -34,-19.49 -34,-27 0,-9.984 4.934,-18.338 13.892,-23.52 6.211,-3.593 12.916,-4.92 16.922,-5.713 l 0.983,-0.197 c 0.485,-0.099 1.028,-0.203 1.62,-0.316 11.293,-2.155 12.54,-4.488 12.611,-7.293 -0.438,-3.319 -4.904,-5.295 -11.996,-5.295 -10.085,0 -10.986,4.139 -11.583,6.877 l -21.496,-4.682 c 3.349,-15.377 15.407,-24.195 33.079,-24.195 27.892,0 34,19.49 34,27 C 13.572,-13.494 8.752,-5.135 0,0"
             style="fill:#3a9d8e;fill-opacity:1;fill-rule:nonzero;stroke:none"
             id="path72"
             inkscape:connector-curvature="0" /></g><g
           id="g74"
           transform="translate(1322.8762,48.0437)"><path
             d="M 0,0 33.626,0 16.94,22.374 0,0 Z m -58.701,22.054 0,67.958 -21.998,0 0,-86.837 L -82.26,0 l 17.684,0 -0.024,0.01 5.899,0 0,0.044 40.001,0 0,22 -40.001,0 z"
             style="fill:#3a9d8e;fill-opacity:1;fill-rule:nonzero;stroke:none"
             id="path76"
             inkscape:connector-curvature="0" /></g></g></g></g></svg>