<?xml version="1.0" encoding="utf-8"?>
<!-- Generator: Adobe Illustrator 24.2.1, SVG Export Plug-In . SVG Version: 6.00 Build 0)  -->
<svg version="1.1" id="THE_BEATLES" xmlns="http://www.w3.org/2000/svg" xmlns:xlink="http://www.w3.org/1999/xlink" x="0px"
	 y="0px" viewBox="0 0 80.2 40.9" style="enable-background:new 0 0 80.2 40.9;" xml:space="preserve">
<style type="text/css">
	.st0{fill:#FFFFFF;}
</style>
<path id="S" class="st0" d="M79.2,14.2l-1.7,3.6c-0.5-1.4-1.8-2-3.6-1.9c-1.2,0.1-2.6,1.1-2.6,2.8c0,1.5,0.8,2.2,4.6,4.2
	c3.4,1.8,4.2,3.8,4.2,5.9c0,3.6-2.5,6.3-6.8,6.3C70,35.1,68,33.2,68,31c0-1.8,1-3.1,2.7-3.5c-0.6,0.7-0.7,1.6-0.7,2
	c0,1.1,0.6,3,3.4,3c1.6,0,2.8-1,2.8-3c0-2.5-1.9-3.3-3.7-4.2c-1.2-0.6-4.4-2.3-4.4-6.3c0-3.1,2.8-5.4,5.8-5.4
	C76.5,13.5,75.8,14.7,79.2,14.2z"/>
<path id="E_1_" class="st0" d="M58.8,16.2c0-0.9-0.2-1.9-0.8-2.4c1.2,0,9.4,0,9.4,0L67,17.4c-0.5-0.5-1.1-1.2-1.8-1.2
	c-0.8,0-2.3,0-2.3,0v6c0,0,1.2,0,1.8,0c0.6,0,1.3-0.1,1.9-0.8v4.1c-0.5-0.4-1.2-0.8-1.8-0.8l-2,0v7.6c0.5,0.2,3.6,0,4.7-1.7
	l-0.6,4.1h-8.9c0.8-0.6,0.8-1.6,0.9-2.4L58.8,16.2L58.8,16.2z"/>
<path id="L" class="st0" d="M49.3,16.2c0-0.9-0.2-1.9-0.8-2.4h5.6c-0.5,0.5-0.7,1.6-0.7,2.4v16c0.5,0.2,3.5,0,4.7-1.7l-0.8,4.2h-8.8
	c0.5-0.3,0.8-1.4,0.8-2.5L49.3,16.2L49.3,16.2z"/>
<path id="T_1_" class="st0" d="M47.9,13.8l0.7,4.2c-0.4-0.7-1.7-1.8-2.4-1.8l-1.2,0c-0.3,0-0.4,0.5-0.4,1c0,0.8,0.2,19.5,0.2,20.6
	c0,1.2,0.7,2.6,1.1,3.1h-7.2c0.5-0.5,1.1-1.9,1.1-3.1c0.1-1.2,0.2-19.8,0.2-20.6c0-0.5-0.1-1-0.4-1l-1.2,0c-0.7,0-2,1-2.4,1.8
	l0.7-4.2L47.9,13.8L47.9,13.8z"/>
<path id="A" class="st0" d="M29.3,13.8c0.8,1,0.9,1.6,0.6,2.4l-3.6,16.1c-0.2,0.7-0.5,1.8-1.2,2.4h4.9c-0.7-0.6-0.9-1.4-0.7-2.4
	l0.6-2.4h3.9l0.6,2.3c0.1,0.6,0,2.1-0.6,2.5h5.5c-0.5-0.4-1.1-1.4-1.4-2.4l-3.4-16c-0.2-0.9-0.1-1.5,0.6-2.5H29.3L29.3,13.8z
	 M33.4,27.5h-2.9l1.5-6.6L33.4,27.5z"/>
<path id="E_2_" class="st0" d="M16.8,16.2c0-0.9-0.2-1.9-0.8-2.4c1.2,0,9.5,0,9.4,0L25,17.4c-0.5-0.5-1.1-1.2-1.8-1.2
	c-0.8,0-2.3,0-2.3,0v6c0,0,1.2,0,1.8,0c0.6,0,1.3-0.1,1.9-0.8v4.1c-0.5-0.4-1.2-0.8-1.8-0.8l-2,0v7.6c0.5,0.2,3.6,0,4.7-1.7
	l-0.6,4.1H16c0.8-0.6,0.8-1.6,0.8-2.4C16.8,32.3,16.8,16.2,16.8,16.2z"/>
<path id="B" class="st0" d="M9,0.7c3.6,0,6.1,1.8,6.1,7.9c0,3.6-1.1,6.4-3.3,7.6c2.1,1.1,4.2,3.8,4.2,8.3c0,7.8-3.2,10-7.3,10
	l-8.7,0c1-1.1,1.4-2.1,1.4-3.5l0-27.1C1.4,2.7,1,1.8,0,0.7L9,0.7z M6,13.9c0,0.8,0.7,1,1.8,1c2.5,0,2.8-2.7,2.8-6.3
	C10.6,4,9.5,3,7.8,3C6.7,3,6,3.5,6,4.2C6,4.9,6,13.2,6,13.9L6,13.9L6,13.9z M8.4,31.9c2.5,0,2.9-2.6,2.9-7.3c0-4.2-1.2-6.4-3.1-6.5
	C7.2,18.2,6,18.3,6,19c0,0.7,0,10.5,0,11.3C6,31.2,7,31.9,8.4,31.9L8.4,31.9L8.4,31.9z"/>
<path id="E" class="st0" d="M43.6,1c0-0.3-0.1-0.8-0.4-1c0.6,0,4.5,0,4.5,0l-0.2,1.4C47.3,1.2,47,1,46.7,1c-0.4,0-1.1,0-1.1,0v2.3
	c0,0,0.6,0,0.9,0c0.3,0,0.6,0,0.9-0.3v1.8c-0.3-0.2-0.6-0.4-0.9-0.4h-0.9v2.8c0.2,0.1,1.7,0,2.2-0.6l-0.3,1.6h-4.2
	c0.4-0.2,0.4-0.7,0.4-1L43.6,1L43.6,1z"/>
<path id="H" class="st0" d="M40,8.2h2.7c-0.2-0.1-0.4-0.5-0.4-1V1c0-0.3,0.1-0.8,0.4-1h-2.6c0.2,0.2,0.3,0.6,0.3,1v2.3h-1.1V1
	c0-0.3,0.1-0.8,0.3-1H37c0.3,0.2,0.4,0.6,0.4,1l0,6.3c0,0.4-0.2,0.8-0.4,1h2.7c-0.2-0.1-0.4-0.5-0.4-1V4.4h1.1v2.8
	C40.4,7.7,40.3,8.1,40,8.2z"/>
<path id="T" class="st0" d="M33,1.4C33,1.2,33,1,32.8,1h-0.6c-0.3,0-0.8,0.4-1,0.7L31.4,0h5.2l0.2,1.7c-0.2-0.3-0.6-0.7-1-0.7h-0.7
	C35,1,34.9,1.2,35,1.4v5.9c0,0.4,0.1,0.8,0.3,1h-2.6C32.9,8,33,7.7,33,7.2L33,1.4z"/>
</svg>
