<?xml version="1.0" encoding="UTF-8" standalone="no"?>
<!-- Created with Inkscape (http://www.inkscape.org/) -->

<svg
   xmlns:dc="http://purl.org/dc/elements/1.1/"
   xmlns:cc="http://creativecommons.org/ns#"
   xmlns:rdf="http://www.w3.org/1999/02/22-rdf-syntax-ns#"
   xmlns:svg="http://www.w3.org/2000/svg"
   xmlns="http://www.w3.org/2000/svg"
   version="1.1"
   width="145.435"
   height="69.287498"
   id="svg4043">
  <defs
     id="defs4045" />
  <metadata
     id="metadata4048">
    <rdf:RDF>
      <cc:Work
         rdf:about="">
        <dc:format>image/svg+xml</dc:format>
        <dc:type
           rdf:resource="http://purl.org/dc/dcmitype/StillImage" />
        <dc:title></dc:title>
      </cc:Work>
    </rdf:RDF>
  </metadata>
  <g
     transform="translate(-690.13964,-192.00415)"
     id="layer1">
    <path
       d="m 700.46464,247.49165 -6.6375,13.8 15.635,-1.725 -7.5225,-23.2875 -11.8,2.73125 10.325,8.48125"
       id="path128"
       style="fill:#cdc639;fill-opacity:1;fill-rule:evenodd;stroke:none" />
    <path
       d="m 709.46214,259.56665 -4.2775,-4.45625 3.9825,-0.71875 0.295,5.175"
       id="path130"
       style="fill:#978e3a;fill-opacity:1;fill-rule:evenodd;stroke:none" />
    <path
       d="m 822.59464,224.6354 12.2425,0.575 -8.7025,10.20625 9.44,12.3625 -15.7825,1.00625 2.8025,-24.15"
       id="path132"
       style="fill:#cdc639;fill-opacity:1;fill-rule:evenodd;stroke:none" />
    <path
       d="m 819.79214,248.7854 3.245,-5.03125 -3.9825,0 0.7375,5.03125"
       id="path134"
       style="fill:#978e3a;fill-opacity:1;fill-rule:evenodd;stroke:none" />
    <path
       d="m 822.29964,220.3229 -39.825,4.16875 c -31.1225,3.1625 -58.115,5.60625 -81.2725,7.33125 l 3.9825,23.2875 0.295,0 c 8.555,-1.86875 20.06,-3.59375 34.515,-5.175 26.255,-3.1625 53.985,-5.03125 83.0425,-5.75 l -0.7375,-23.8625"
       id="path136"
       style="fill:#f4e959;fill-opacity:1;fill-rule:evenodd;stroke:none" />
    <path
       d="m 714.62464,233.8354 0.1475,0 2.5075,-0.43125 0.7375,1.4375 c 1.3275,3.30625 2.95,7.61875 4.8675,12.79375 l 1.0325,2.3 -3.835,0.71875 -0.7375,-2.0125 -0.59,-1.86875 -0.4425,-0.8625 -0.7375,0 -2.5075,0.43125 -0.1475,2.3 0,2.73125 -3.835,0.575 0.1475,-0.43125 0.4425,-17.10625 2.95,-0.575 z m 0.4425,2.73125 -0.1475,7.04375 0.1475,0.575 2.8025,-0.575 -2.8025,-7.04375"
       id="path138"
       style="fill:#ea1e29;fill-opacity:1;fill-rule:evenodd;stroke:none" />
    <path
       d="m 727.60464,232.6854 0.295,2.875 1.0325,11.5 2.8025,-0.43125 0,0.575 c 0.1475,0.43125 0.1475,0.8625 0,1.15 l 0,0.43125 -6.3425,0.8625 -0.295,-3.59375 c -0.295,-2.73125 -0.4425,-4.8875 -0.4425,-6.18125 0,-1.29375 -0.1475,-2.875 -0.4425,-4.74375 l -0.295,-2.44375 3.6875,-0.43125 0,0.43125"
       id="path140"
       style="fill:#ea1e29;fill-opacity:1;fill-rule:evenodd;stroke:none" />
    <path
       d="m 740.14214,247.77915 -6.3425,0.71875 -0.295,-3.59375 -0.295,-6.18125 c 0,-1.15 -0.1475,-2.73125 -0.4425,-4.74375 l -0.1475,-2.44375 3.6875,-0.43125 1.18,14.80625 2.655,-0.2875 0.1475,0.575 0,1.00625 -0.1475,0.575"
       id="path142"
       style="fill:#ea1e29;fill-opacity:1;fill-rule:evenodd;stroke:none" />
    <path
       d="m 758.57964,228.3729 3.835,-0.43125 c 1.77,-0.14375 2.8025,0 3.0975,0.43125 0.295,0.2875 0.4425,0.71875 0.4425,1.15 l 0.295,3.59375 -3.835,0.2875 -0.1475,-1.86875 c 0,-0.43125 -0.1475,-0.575 -0.295,-0.71875 -0.1475,-0.14375 -0.59,-0.2875 -1.0325,-0.2875 l -0.4425,0 c -0.4425,0 -0.885,0.14375 -1.0325,0.43125 -0.295,0.14375 -0.4425,0.575 -0.295,1.00625 l -0.1475,2.15625 0,0.14375 c 0.1475,0.43125 0.59,0.8625 1.0325,1.15 0.4425,0.14375 1.3275,0.43125 2.8025,1.00625 1.6225,0.71875 2.655,1.15 2.95,1.4375 0.1475,0.2875 0.295,0.8625 0.4425,1.58125 l 0,1.725 c 0.1475,1.58125 0,2.5875 -0.1475,3.01875 -0.1475,0.43125 -0.59,0.71875 -1.475,1.00625 l -3.54,0.575 c -1.6225,0.14375 -2.655,0.2875 -3.245,0.14375 -0.7375,-0.14375 -1.3275,-0.2875 -1.475,-0.575 -0.295,-0.14375 -0.4425,-0.71875 -0.59,-1.725 l -0.1475,-3.30625 3.54,-0.43125 0,1.86875 c 0.1475,1.15 0.4425,1.725 0.59,1.86875 l 1.3275,-0.14375 0.885,-0.2875 c 0.295,-0.14375 0.4425,-0.2875 0.4425,-0.71875 l -0.1475,-2.0125 0,-1.00625 -2.36,-0.71875 -3.6875,-1.4375 c -0.4425,-0.2875 -0.7375,-1.00625 -0.885,-2.0125 l -0.1475,-0.14375 -0.1475,-3.30625 c 0,-1.29375 0,-2.15625 0.1475,-2.3 l 1.0325,-0.71875 c 0.4425,-0.14375 1.3275,-0.2875 2.36,-0.43125"
       id="path144"
       style="fill:#ea1e29;fill-opacity:1;fill-rule:evenodd;stroke:none" />
    <path
       d="m 777.01714,228.9479 -2.8025,0.2875 0.4425,15.38125 -3.6875,0.14375 -0.4425,-15.38125 -2.95,0.2875 -0.1475,-2.0125 9.44,-0.71875 0.1475,2.0125"
       id="path146"
       style="fill:#ea1e29;fill-opacity:1;fill-rule:evenodd;stroke:none" />
    <path
       d="m 790.43964,243.3229 -3.835,0.43125 -0.59,-2.15625 c -0.4425,-1.86875 -0.59,-2.73125 -0.7375,-2.875 l -0.7375,0 -2.5075,0.2875 -0.4425,2.3 -0.1475,2.0125 -0.1475,0.575 -3.835,0.43125 0.1475,-0.575 2.2125,-16.9625 2.95,-0.2875 0.1475,0 2.5075,-0.2875 0.59,1.58125 1.0325,3.7375 2.655,9.34375 0.7375,2.44375 z m -8.26,-7.04375 0,0.575 2.8025,-0.2875 -2.065,-7.33125 -0.7375,7.04375"
       id="path148"
       style="fill:#ea1e29;fill-opacity:1;fill-rule:evenodd;stroke:none" />
    <path
       d="m 801.94464,227.36665 0.1475,2.5875 c 0.1475,1.58125 0,2.5875 -0.1475,3.01875 -0.1475,0.575 -0.885,1.00625 -2.2125,1.15 l -0.59,0.14375 0.885,2.15625 1.0325,2.875 0.7375,1.86875 0.59,1.4375 -3.3925,0.2875 -3.3925,-8.625 -0.295,8.76875 -3.3925,0.2875 -0.295,-17.5375 8.1125,-0.43125 c 0.7375,0 1.3275,0.14375 1.6225,0.43125 0.295,0.14375 0.4425,0.71875 0.59,1.58125 z m -5.31,0.43125 -0.1475,0 -1.18,0.14375 0.295,4.8875 0.295,0.14375 1.475,-0.2875 0.7375,-0.2875 c 0.1475,-0.14375 0.1475,-0.2875 0.295,-0.71875 l 0.1475,-1.86875 -0.1475,-0.43125 c 0,-0.71875 -0.1475,-1.15 -0.4425,-1.29375 l -1.3275,-0.2875"
       id="path150"
       style="fill:#ea1e29;fill-opacity:1;fill-rule:evenodd;stroke:none" />
    <path
       d="m 812.12214,224.77915 c 1.77,0 2.8025,0.14375 3.0975,0.575 0.1475,0.2875 0.295,0.71875 0.4425,1.15 l 0,3.59375 -3.835,0.14375 0,-1.86875 -0.295,-0.8625 c -0.1475,-0.14375 -0.59,-0.2875 -1.0325,-0.2875 l -0.4425,0 c -1.0325,0.14375 -1.475,0.575 -1.475,1.29375 l -0.1475,2.3 0,0.14375 c 0.1475,0.43125 0.4425,0.8625 0.885,1.15 l 2.8025,1.15 c 1.6225,0.71875 2.5075,1.15 2.8025,1.58125 0.1475,0.2875 0.295,0.8625 0.4425,1.58125 l 0,1.725 c -0.1475,1.58125 -0.295,2.5875 -0.4425,3.01875 -0.1475,0.43125 -0.7375,0.71875 -1.475,1.00625 l -3.54,0.43125 -3.3925,-0.14375 c -0.7375,-0.14375 -1.18,-0.2875 -1.3275,-0.575 -0.295,-0.2875 -0.4425,-0.8625 -0.4425,-1.725 l -0.1475,-3.45 3.6875,-0.14375 0,1.86875 c 0.1475,1.15 0.1475,1.725 0.295,1.725 l 1.475,0 0.885,-0.14375 c 0.1475,-0.14375 0.295,-0.43125 0.4425,-0.71875 l 0,-3.01875 -2.36,-0.8625 c -1.9175,-0.8625 -3.0975,-1.4375 -3.54,-1.58125 -0.59,-0.2875 -0.885,-1.00625 -0.885,-2.15625 l 0,-3.45 c 0.1475,-1.29375 0.1475,-2.0125 0.295,-2.15625 0.1475,-0.43125 0.59,-0.575 1.0325,-0.71875 l 2.2125,-0.2875 1.6225,-0.14375 2.36,-0.14375"
       id="path152"
       style="fill:#ea1e29;fill-opacity:1;fill-rule:evenodd;stroke:none" />
    <path
       d="m 745.89464,234.84165 2.8025,-3.01875 -0.4425,3.7375 2.95,1.725 -3.245,0.8625 -0.1475,5.75 -2.95,-5.03125 -3.54,1.725 2.36,-3.7375 -1.475,-3.45 3.6875,1.4375"
       id="path154"
       style="fill:#ea1e29;fill-opacity:1;fill-rule:evenodd;stroke:none" />
    <path
       d="m 733.79964,220.3229 -0.295,5.03125 -0.295,-0.575 0.1475,-5.03125 0.4425,0.575"
       id="path156"
       style="fill:#8b181e;fill-opacity:1;fill-rule:evenodd;stroke:none" />
    <path
       d="m 801.94464,194.7354 0.4425,-0.575 2.5075,12.3625 0.1475,1.58125 -3.0975,-13.36875"
       id="path158"
       style="fill:#8b181e;fill-opacity:1;fill-rule:evenodd;stroke:none" />
    <path
       d="m 815.51464,218.3104 -1.9175,-25.0125 -0.4425,0.43125 1.18,20.9875 0.59,2.875 0,0.14375 0.59,0.575"
       id="path160"
       style="fill:#8b181e;fill-opacity:1;fill-rule:evenodd;stroke:none" />
    <path
       d="m 815.51464,218.3104 -4.5725,0.14375 0.295,-0.8625 3.6875,0.14375 0.59,0.575"
       id="path162"
       style="fill:#590e10;fill-opacity:1;fill-rule:evenodd;stroke:none" />
    <path
       d="m 804.59964,218.3104 -0.295,0.8625 -3.835,-11.64375 -0.295,-1.4375 1.9175,3.7375 2.655,8.3375 -0.1475,0.14375"
       id="path164"
       style="fill:#ee606e;fill-opacity:1;fill-rule:evenodd;stroke:none" />
    <path
       d="m 800.76464,218.5979 0.59,0.71875 -0.885,-11.7875 -0.295,-1.4375 0.59,12.50625"
       id="path166"
       style="fill:#8b181e;fill-opacity:1;fill-rule:evenodd;stroke:none" />
    <path
       d="m 794.86464,196.1729 -0.295,-0.71875 -0.4425,-0.43125 3.3925,24.58125 0.4425,-0.8625 -3.0975,-22.56875"
       id="path168"
       style="fill:#ee606e;fill-opacity:1;fill-rule:evenodd;stroke:none" />
    <path
       d="m 802.38714,194.1604 -8.26,0.8625 0.4425,0.43125 1.0325,0.2875 6.0475,-0.575 0.7375,-1.00625"
       id="path170"
       style="fill:#ee606e;fill-opacity:1;fill-rule:evenodd;stroke:none" />
    <path
       d="m 784.24464,220.6104 0.1475,0 -3.0975,-8.76875 -0.59,-0.14375 0.7375,2.73125 2.8025,6.18125"
       id="path172"
       style="fill:#8b181e;fill-opacity:1;fill-rule:evenodd;stroke:none" />
    <path
       d="m 781.29464,197.17915 -1.0325,-0.71875 -1.475,-0.2875 -8.9975,1.00625 1.3275,2.0125 1.6225,-0.14375 5.1625,0.2875 1.475,0.8625 0.885,1.15 0.1475,2.875 -0.295,1.58125 0.59,5.89375 0.59,0.14375 0.4425,-0.43125 1.77,-3.59375 0.295,-3.01875 -0.59,-4.3125 -1.0325,-2.44375 -0.885,-0.8625"
       id="path174"
       style="fill:#8b181e;fill-opacity:1;fill-rule:evenodd;stroke:none" />
    <path
       d="m 770.37964,197.8979 -0.59,-0.71875 3.9825,24.4375 0.4425,-0.575 -3.835,-23.14375"
       id="path176"
       style="fill:#ee606e;fill-opacity:1;fill-rule:evenodd;stroke:none" />
    <path
       d="m 777.31214,213.85415 2.5075,7.1875 0.295,-0.8625 -2.065,-6.75625 -0.7375,0.43125"
       id="path178"
       style="fill:#8b181e;fill-opacity:1;fill-rule:evenodd;stroke:none" />
    <path
       d="m 777.16464,220.75415 0.59,0.575 -3.9825,0.2875 0.295,-0.43125 3.0975,-0.43125"
       id="path180"
       style="fill:#590e10;fill-opacity:1;fill-rule:evenodd;stroke:none" />
    <path
       d="m 777.01714,213.9979 0.1475,6.75625 0.59,0.575 -0.4425,-7.475 -0.295,0.14375"
       id="path182"
       style="fill:#8b181e;fill-opacity:1;fill-rule:evenodd;stroke:none" />
    <path
       d="m 778.19714,205.3729 -0.4425,-0.14375 0,-0.71875 -0.295,-0.71875 -0.4425,-0.14375 -0.295,-0.14375 -0.59,0.14375 -0.295,-0.14375 0.1475,-0.43125 1.0325,-0.14375 1.0325,0.2875 0.295,0.575 0,1.58125 -0.1475,0"
       id="path184"
       style="fill:#ee606e;fill-opacity:1;fill-rule:evenodd;stroke:none" />
    <path
       d="m 777.75464,206.09165 -0.1475,0.575 -0.295,0.43125 -0.295,0.2875 -0.4425,0.2875 -0.1475,0.14375 -0.1475,0.2875 0.4425,0 0.7375,-0.14375 0.59,-0.71875 0.295,-1.86875 0,-0.14375 -0.59,0 0,0.8625"
       id="path186"
       style="fill:#ee606e;fill-opacity:1;fill-rule:evenodd;stroke:none" />
    <path
       d="m 775.83714,203.50415 0.295,0.14375 0.4425,4.025 -0.1475,0.43125 -0.59,-4.6"
       id="path188"
       style="fill:#590e10;fill-opacity:1;fill-rule:evenodd;stroke:none" />
    <path
       d="m 728.63714,200.7729 1.475,24.86875 0.295,-0.575 -1.18,-24.00625 -0.59,-0.2875"
       id="path190"
       style="fill:#ee606e;fill-opacity:1;fill-rule:evenodd;stroke:none" />
    <path
       d="m 704.74214,211.1229 0.295,0.43125 -2.95,0.14375 -0.1475,-0.2875 2.8025,-0.2875"
       id="path192"
       style="fill:#590e10;fill-opacity:1;fill-rule:evenodd;stroke:none" />
    <path
       d="m 693.38464,204.5104 0.59,0.2875 0.885,7.04375 -0.59,0.43125 -0.885,-7.61875 0,-0.14375"
       id="path194"
       style="fill:#ee606e;fill-opacity:1;fill-rule:evenodd;stroke:none" />
    <path
       d="m 693.97464,204.7979 10.4725,-0.8625 0.4425,-0.2875 -11.505,0.8625 0.59,0.2875"
       id="path196"
       style="fill:#ee606e;fill-opacity:1;fill-rule:evenodd;stroke:none" />
    <path
       d="m 696.77714,211.6979 -0.295,0.43125 -2.2125,0.14375 0.4425,-0.2875 2.065,-0.2875"
       id="path198"
       style="fill:#590e10;fill-opacity:1;fill-rule:evenodd;stroke:none" />
    <path
       d="m 696.48214,212.12915 2.36,16.3875 0.295,-0.2875 -2.36,-16.53125 -0.295,0.43125"
       id="path200"
       style="fill:#ee606e;fill-opacity:1;fill-rule:evenodd;stroke:none" />
    <path
       d="m 702.38214,211.6979 0.885,16.675 -0.295,-0.43125 -1.0325,-16.53125 0.4425,0.2875"
       id="path202"
       style="fill:#8b181e;fill-opacity:1;fill-rule:evenodd;stroke:none" />
    <path
       d="m 704.88964,203.6479 0.1475,7.90625 -0.295,-0.43125 -0.295,-7.1875 0.4425,-0.2875"
       id="path204"
       style="fill:#8b181e;fill-opacity:1;fill-rule:evenodd;stroke:none" />
    <path
       d="m 698.84214,228.51665 4.425,-0.14375 -0.295,-0.43125 -3.835,0.2875 -0.295,0.2875"
       id="path206"
       style="fill:#590e10;fill-opacity:1;fill-rule:evenodd;stroke:none" />
    <path
       d="m 704.74214,211.1229 -2.8025,0.2875 1.0325,16.53125 -3.835,0.2875 -2.36,-16.53125 -2.065,0.2875 -0.7375,-7.1875 10.4725,-0.8625 0.295,7.1875"
       id="path208"
       style="fill:#ea1a29;fill-opacity:1;fill-rule:evenodd;stroke:none" />
    <path
       d="m 728.04714,208.96665 0.295,0.2875 -2.8025,0.2875 -0.1475,-0.43125 2.655,-0.14375"
       id="path210"
       style="fill:#590e10;fill-opacity:1;fill-rule:evenodd;stroke:none" />
    <path
       d="m 716.83714,202.35415 0.59,0.2875 0.885,7.04375 -0.59,0.2875 -0.885,-7.475 0,-0.14375"
       id="path212"
       style="fill:#ee606e;fill-opacity:1;fill-rule:evenodd;stroke:none" />
    <path
       d="m 717.42714,202.64165 10.4725,-0.8625 0.295,-0.2875 -11.3575,0.8625 0.59,0.2875"
       id="path214"
       style="fill:#ee606e;fill-opacity:1;fill-rule:evenodd;stroke:none" />
    <path
       d="m 720.22964,209.54165 -0.295,0.2875 -2.2125,0.14375 0.295,-0.2875 2.2125,-0.14375"
       id="path216"
       style="fill:#590e10;fill-opacity:1;fill-rule:evenodd;stroke:none" />
    <path
       d="m 719.78714,209.82915 2.36,16.53125 0.295,-0.43125 -2.2125,-16.3875 -0.4425,0.2875"
       id="path218"
       style="fill:#ee606e;fill-opacity:1;fill-rule:evenodd;stroke:none" />
    <path
       d="m 725.83464,209.54165 0.7375,16.53125 -0.295,-0.2875 -0.885,-16.675 0.4425,0.43125"
       id="path220"
       style="fill:#8b181e;fill-opacity:1;fill-rule:evenodd;stroke:none" />
    <path
       d="m 728.19464,201.49165 0.1475,7.7625 -0.295,-0.2875 -0.1475,-7.1875 0.295,-0.2875"
       id="path222"
       style="fill:#8b181e;fill-opacity:1;fill-rule:evenodd;stroke:none" />
    <path
       d="m 722.14714,226.3604 4.425,-0.2875 -0.295,-0.2875 -3.835,0.14375 -0.295,0.43125"
       id="path224"
       style="fill:#590e10;fill-opacity:1;fill-rule:evenodd;stroke:none" />
    <path
       d="m 728.04714,208.96665 -2.655,0.14375 0.885,16.675 -3.835,0.14375 -2.2125,-16.3875 -2.2125,0.14375 -0.59,-7.04375 10.4725,-0.8625 0.1475,7.1875"
       id="path226"
       style="fill:#ea1a29;fill-opacity:1;fill-rule:evenodd;stroke:none" />
    <path
       d="m 728.04714,208.96665 -2.655,0.14375 0.885,16.675 -3.835,0.14375 -2.2125,-16.3875 -2.2125,0.14375 -0.59,-7.04375 10.4725,-0.8625 0.1475,7.1875"
       id="path228"
       style="fill:#ea1a29;fill-opacity:1;fill-rule:evenodd;stroke:none" />
    <path
       d="m 738.22464,200.34165 2.95,23.8625 -3.0975,0.14375 -1.0325,-4.6 -3.6875,0 -0.1475,5.03125 -2.8025,0.2875 -1.18,-24.00625 8.9975,-0.71875 z m -2.655,13.08125 -1.77,-7.04375 -0.1475,7.33125 1.9175,-0.2875"
       id="path230"
       style="fill:#ea1a29;fill-opacity:1;fill-rule:evenodd;stroke:none" />
    <path
       d="m 813.15464,193.72915 1.77,24.00625 -3.6875,-0.14375 -2.2125,-11.93125 -0.1475,12.21875 -4.2775,0.43125 -4.425,-12.21875 0.7375,12.65 -2.95,0 -3.3925,-23.2875 7.5225,-0.8625 2.95,13.5125 0.59,-13.5125 7.5225,-0.8625"
       id="path232"
       style="fill:#ea1a29;fill-opacity:1;fill-rule:evenodd;stroke:none" />
    <path
       d="m 707.39714,220.0354 1.0325,4.74375 0.295,0.43125 -1.0325,-4.6 -0.295,-0.575"
       id="path234"
       style="fill:#ee606e;fill-opacity:1;fill-rule:evenodd;stroke:none" />
    <path
       d="m 716.83714,221.32915 -0.295,0.71875 -0.1475,1.00625 -0.295,0.8625 -0.885,1.4375 -1.0325,0.43125 -2.655,-0.2875 -0.885,-0.43125 -0.4425,-1.15 -1.18,-5.31875 -0.295,-1.00625 -1.6225,-8.48125 -0.4425,-1.00625 0,-1.29375 0.1475,-1.00625 0.4425,-0.43125 -0.7375,-1.15 -0.7375,0.8625 -0.295,0.8625 -0.1475,1.00625 0.1475,2.44375 2.065,11.64375 1.0325,3.88125 0.1475,0.43125 0.4425,0.575 0.7375,1.00625 1.0325,0.575 1.9175,0 2.2125,-0.2875 0.885,-0.2875 0.4425,-0.2875 0.4425,-0.43125 0.7375,-1.15 0.1475,-0.43125 0.1475,-0.8625 0,-1.4375 -1.0325,-15.2375 -1.3275,-1.00625 0,1.15 1.3275,14.0875"
       id="path236"
       style="fill:#8b181e;fill-opacity:1;fill-rule:evenodd;stroke:none" />
    <path
       d="m 715.95214,203.79165 -0.4425,-0.14375 -1.18,-0.43125 -0.59,-0.14375 0,0.14375 -0.295,0.43125 -0.4425,0.575 0,0 2.065,1.00625 0.4425,0.2875 0.295,0.575 0.4425,0.8625 0.7375,0.8625 -0.4425,-3.30625 -0.59,-0.71875"
       id="path238"
       style="fill:#8b181e;fill-opacity:1;fill-rule:evenodd;stroke:none" />
    <path
       d="m 714.03464,216.8729 -0.1475,2.44375 0.295,1.58125 -0.1475,1.00625 -0.1475,0.2875 -0.7375,0.2875 -0.295,0.14375 -0.4425,-0.2875 -0.295,-0.43125 -0.885,-3.59375 -0.1475,-1.58125 0.4425,0 0.885,4.6 0.295,0.43125 0.1475,0.14375 0.295,0 0.295,-0.2875 0.1475,-0.2875 -0.1475,-1.4375 0,-0.14375 -0.4425,-3.30625 0.59,-0.14375 0.4425,0.575"
       id="path240"
       style="fill:#8b181e;fill-opacity:1;fill-rule:evenodd;stroke:none" />
    <path
       d="m 713.00214,216.44165 0.4425,2.73125 0,0.14375 0.1475,1.15 0,0.2875 0.295,0.2875 0,0.14375 0,-1.29375 -0.59,-3.59375 -0.295,0.14375"
       id="path242"
       style="fill:#ee606e;fill-opacity:1;fill-rule:evenodd;stroke:none" />
    <path
       d="m 712.11714,209.9729 -0.59,-0.14375 -0.59,0.2875 -0.1475,0.14375 c -0.1475,0.14375 -0.295,0.14375 -0.295,0.14375 l -0.1475,0.43125 0.59,6.0375 0.59,0 -0.7375,-4.8875 0,-0.575 0.1475,-0.43125 0.295,-0.2875 0.295,-0.14375 0.4425,0 0.295,0.43125 0.295,0.71875 0.4425,5.175 0.59,-0.575 -0.4425,-4.025 -0.4425,-1.725 -0.295,-0.43125 -0.295,-0.14375"
       id="path244"
       style="fill:#8b181e;fill-opacity:1;fill-rule:evenodd;stroke:none" />
    <path
       d="m 711.52714,209.9729 -0.295,0.14375 0.1475,0.43125 0.59,0 0.1475,0.2875 0.1475,0.2875 0.295,0.8625 0.295,4.16875 0.7375,4.3125 0,0.43125 0.295,0.2875 0.1475,-0.14375 -0.1475,-1.29375 -0.885,-6.46875 0,-1.58125 -0.295,-0.71875 0,-0.575 -0.885,-0.2875 -0.295,-0.14375"
       id="path246"
       style="fill:#ee606e;fill-opacity:1;fill-rule:evenodd;stroke:none" />
    <path
       d="m 715.95214,211.4104 0,-3.01875 c 0,-1.15 -0.1475,-1.725 -0.4425,-1.725 l 0,0.575 0.4425,4.16875"
       id="path248"
       style="fill:#ee606e;fill-opacity:1;fill-rule:evenodd;stroke:none" />
    <path
       d="m 716.83714,221.32915 -0.295,0.71875 -0.1475,1.00625 -0.295,0.8625 -0.885,1.4375 -1.0325,0.43125 -2.655,-0.2875 -0.885,-0.43125 -0.4425,-1.15 -1.18,-5.31875 -0.295,-1.00625 -1.6225,-8.48125 -0.4425,-1.00625 0,-1.29375 0.1475,-1.00625 0.4425,-0.43125 -0.7375,-1.15 -0.7375,0.8625 -0.295,0.8625 -0.1475,1.00625 0.4425,4.74375 1.77,8.9125 0,0.43125 1.0325,3.88125 0.1475,0.43125 0.4425,0.575 0.7375,1.00625 1.0325,0.575 1.6225,0 -0.1475,-0.575 -0.1475,0 0,-0.575 c 0.1475,-0.2875 0.295,-0.43125 0.59,-0.43125 0.295,-0.14375 0.4425,0 0.59,0.2875 1.0325,-0.14375 1.77,-0.2875 2.36,-0.575 0.7375,-0.43125 1.18,-1.00625 1.3275,-1.86875 0.1475,-1.86875 0,-3.88125 -0.59,-5.75 -0.1475,-0.2875 0,-0.575 0.295,-0.71875 0,-1.4375 0,-2.5875 -0.1475,-3.30625 l 0,-0.14375 -0.295,-0.2875 -0.295,-0.575 0.7375,8.3375"
       id="path250"
       style="fill:#ee606e;fill-opacity:1;fill-rule:evenodd;stroke:none" />
    <path
       d="m 713.44464,221.4729 -0.1475,0.2875 -0.295,0.14375 -0.1475,-0.14375 -0.1475,0 -0.4425,0.14375 0.295,0.43125 0.1475,0.14375 0.59,0 0.295,-0.2875 0.4425,-0.575 0,-0.2875 -0.4425,-0.43125 -0.1475,0.575"
       id="path252"
       style="fill:#ee606e;fill-opacity:1;fill-rule:evenodd;stroke:none" />
    <path
       d="m 707.24964,203.79165 1.475,-0.2875 3.0975,-0.43125 1.9175,0 -0.1475,0.575 -6.6375,1.29375 -0.295,-0.2875 -0.1475,-0.43125 0.7375,-0.43125"
       id="path254"
       style="fill:#ee606e;fill-opacity:1;fill-rule:evenodd;stroke:none" />
    <path
       d="m 715.95214,205.0854 0.59,-0.575 -0.59,-0.71875 -0.7375,-0.2875 -1.475,-0.43125 -0.1475,0.2875 0.59,0.2875 0.885,0.43125 0.885,1.00625"
       id="path256"
       style="fill:#e53950;fill-opacity:1;fill-rule:evenodd;stroke:none" />
    <path
       d="m 714.91964,203.50415 0.295,0 -1.475,-0.43125 0.1475,0.14375 1.0325,0.2875"
       id="path258"
       style="fill:#e53950;fill-opacity:1;fill-rule:evenodd;stroke:none" />
    <path
       d="m 716.68964,207.52915 0.885,14.6625 c 0.1475,1.86875 -0.4425,3.1625 -1.475,4.025 -0.4425,0.43125 -0.885,0.575 -1.6225,0.71875 l -2.2125,0.14375 c -1.0325,0.14375 -1.77,-0.14375 -2.5075,-0.8625 -0.7375,-0.71875 -1.18,-1.86875 -1.475,-3.45 l -2.655,-14.6625 c -0.1475,-2.0125 0.4425,-3.30625 1.9175,-4.025 2.8025,-0.575 4.8675,-0.8625 6.0475,-0.71875 l 0.885,0.14375 c 1.0325,0.2875 1.6225,0.71875 1.77,1.4375 l 0,0.14375 c 0.1475,0.71875 0.295,1.4375 0.4425,2.44375 z m -6.0475,4.8875 1.3275,8.19375 c 0.1475,0.8625 0.4425,1.4375 0.7375,1.725 l 0.4425,0.14375 c 0.59,-0.2875 0.885,-1.00625 0.7375,-2.0125 -0.7375,-4.6 -1.0325,-7.475 -1.0325,-8.48125 l -0.295,-1.00625 c -0.1475,-0.71875 -0.59,-1.00625 -1.18,-0.8625 -0.7375,0.43125 -1.0325,1.00625 -0.885,1.725 l 0.1475,0.575"
       id="path260"
       style="fill:#ea1a29;fill-opacity:1;fill-rule:evenodd;stroke:none" />
    <path
       d="m 730.40714,225.06665 -0.295,0.575 3.3925,-0.2875 -0.295,-0.575 -2.8025,0.2875"
       id="path262"
       style="fill:#590e10;fill-opacity:1;fill-rule:evenodd;stroke:none" />
    <path
       d="m 733.79964,220.3229 3.0975,0 0.1475,-0.575 -3.6875,0 0.4425,0.575"
       id="path264"
       style="fill:#590e10;fill-opacity:1;fill-rule:evenodd;stroke:none" />
    <path
       d="m 737.04464,219.7479 1.0325,4.6 -0.295,0.575 -0.885,-4.6 0.1475,-0.575"
       id="path266"
       style="fill:#8b181e;fill-opacity:1;fill-rule:evenodd;stroke:none" />
    <path
       d="m 741.46964,224.77915 -3.6875,0.14375 0.295,-0.575 3.0975,-0.14375 0.295,0.575"
       id="path268"
       style="fill:#590e10;fill-opacity:1;fill-rule:evenodd;stroke:none" />
    <path
       d="m 741.17464,224.20415 -2.95,-23.8625 0.59,-0.43125 2.655,24.86875 -0.295,-0.575"
       id="path270"
       style="fill:#8b181e;fill-opacity:1;fill-rule:evenodd;stroke:none" />
    <path
       d="m 738.81464,199.9104 -10.1775,0.8625 0.59,0.2875 8.9975,-0.71875 0.59,-0.43125"
       id="path272"
       style="fill:#ee606e;fill-opacity:1;fill-rule:evenodd;stroke:none" />
    <path
       d="m 733.65214,213.27915 1.77,-0.2875 0.1475,0.43125 -1.9175,0.2875 0,-0.43125"
       id="path274"
       style="fill:#ee606e;fill-opacity:1;fill-rule:evenodd;stroke:none" />
    <path
       d="m 733.79964,206.5229 0.1475,1.29375 1.0325,5.60625 0.59,0 -1.77,-7.04375 0,0.14375"
       id="path276"
       style="fill:#ee606e;fill-opacity:1;fill-rule:evenodd;stroke:none" />
    <path
       d="m 733.79964,206.37915 -0.1475,7.33125 0.1475,-0.43125 0,-6.9"
       id="path278"
       style="fill:#8b181e;fill-opacity:1;fill-rule:evenodd;stroke:none" />
    <path
       d="m 745.45214,200.05415 0.4425,-0.575 1.475,18.1125 -0.295,0.43125 -1.6225,-17.96875"
       id="path280"
       style="fill:#8b181e;fill-opacity:1;fill-rule:evenodd;stroke:none" />
    <path
       d="m 750.76214,217.4479 0.1475,-0.575 -3.54,0.71875 -0.295,0.43125 3.6875,-0.575"
       id="path282"
       style="fill:#590e10;fill-opacity:1;fill-rule:evenodd;stroke:none" />
    <path
       d="m 750.76214,217.4479 0.59,5.89375 0.1475,0.2875 -0.59,-6.75625 -0.1475,0.575"
       id="path284"
       style="fill:#8b181e;fill-opacity:1;fill-rule:evenodd;stroke:none" />
    <path
       d="m 743.53464,223.91665 -0.295,0.575 8.26,-0.8625 -0.1475,-0.2875 -7.8175,0.575"
       id="path286"
       style="fill:#590e10;fill-opacity:1;fill-rule:evenodd;stroke:none" />
    <path
       d="m 743.23964,224.49165 -3.9825,-24.4375 0.4425,0.2875 3.835,23.575 -0.295,0.575"
       id="path288"
       style="fill:#ee606e;fill-opacity:1;fill-rule:evenodd;stroke:none" />
    <path
       d="m 745.45214,200.05415 -5.7525,0.2875 -0.4425,-0.2875 6.6375,-0.575 -0.4425,0.575"
       id="path290"
       style="fill:#ee606e;fill-opacity:1;fill-rule:evenodd;stroke:none" />
    <path
       d="m 779.96714,220.46665 -0.1475,0.575 4.5725,-0.43125 -0.4425,-0.43125 -3.9825,0.2875"
       id="path292"
       style="fill:#590e10;fill-opacity:1;fill-rule:evenodd;stroke:none" />
    <path
       d="m 766.54464,198.04165 -1.475,0.71875 2.065,0.8625 0.885,0.8625 0.59,1.15 0.59,7.1875 0,9.91875 -0.295,1.29375 -0.295,0.575 -0.59,0.575 -1.6225,0.575 -3.245,0.43125 -1.18,0.14375 -0.1475,0.2875 -0.59,0.2875 6.49,-0.71875 0.4425,-0.14375 0.59,-0.43125 0.295,-0.14375 0.295,-0.71875 0.59,-1.86875 0,-15.66875 -0.1475,-1.58125 -0.295,-1.4375 0,-0.14375 -0.885,-1.00625 -0.885,-0.71875 -1.18,-0.2875"
       id="path294"
       style="fill:#8b181e;fill-opacity:1;fill-rule:evenodd;stroke:none" />
    <path
       d="m 765.06964,198.61665 0.1475,0 c 1.77,0.2875 2.95,1.00625 3.6875,2.0125 l 0.59,-0.43125 -0.885,-1.15 -0.885,-0.71875 -0.1475,0 -2.5075,0.2875"
       id="path296"
       style="fill:#e53950;fill-opacity:1;fill-rule:evenodd;stroke:none" />
    <path
       d="m 766.54464,198.61665 0.885,-0.14375 0.295,-0.14375 -1.18,-0.2875 -1.475,0.575 1.475,0"
       id="path298"
       style="fill:#e53950;fill-opacity:1;fill-rule:evenodd;stroke:none" />
    <path
       d="m 757.54714,198.4729 3.6875,24.4375 0.59,-0.2875 -3.3925,-23.71875 -0.885,-0.43125"
       id="path300"
       style="fill:#ee606e;fill-opacity:1;fill-rule:evenodd;stroke:none" />
    <path
       d="m 765.06964,198.7604 -6.6375,0.14375 -0.885,-0.43125 7.375,-0.575 1.6225,0.14375 -1.475,0.71875"
       id="path302"
       style="fill:#ee606e;fill-opacity:1;fill-rule:evenodd;stroke:none" />
    <path
       d="m 766.24964,207.6729 0.1475,1.58125 -0.295,8.9125 -0.1475,0.575 -0.295,0.2875 -0.7375,0.2875 -0.59,0 0.4425,-0.43125 0.1475,-0.14375 0.4425,0 0.1475,-0.2875 0.1475,-0.43125 0.295,-9.34375 0,-0.71875 -0.295,-0.71875 -0.295,-0.2875 -0.59,-0.14375 -0.7375,0 -0.295,-0.2875 -0.1475,-0.2875 0.4425,0 0.59,-0.14375 0.7375,0.14375 0.7375,0.8625 0.1475,0.575"
       id="path304"
       style="fill:#8b181e;fill-opacity:1;fill-rule:evenodd;stroke:none" />
    <path
       d="m 769.64214,217.7354 c -0.4425,2.875 -1.3275,4.3125 -2.8025,4.3125 l -5.015,0.575 -3.3925,-23.71875 5.7525,-0.2875 c 3.3925,0 5.1625,1.29375 5.31,3.7375 l 0,1.15 0.1475,14.23125 z m -3.3925,-9.34375 c 0,-1.58125 -0.59,-2.15625 -1.9175,-2.0125 l -0.59,0.14375 0.7375,12.65 c 1.0325,-0.14375 1.475,-0.575 1.475,-1.00625 l 0.295,-9.775"
       id="path306"
       style="fill:#ea1a29;fill-opacity:1;fill-rule:evenodd;stroke:none" />
    <path
       d="m 764.47964,219.1729 0.295,-0.2875 -0.59,-12.075 -0.4425,-0.2875 0.7375,12.65"
       id="path308"
       style="fill:#590e10;fill-opacity:1;fill-rule:evenodd;stroke:none" />
    <path
       d="m 761.82464,222.6229 5.605,-0.71875 0.295,0.2875 -6.49,0.71875 0.59,-0.2875"
       id="path310"
       style="fill:#590e10;fill-opacity:1;fill-rule:evenodd;stroke:none" />
    <path
       d="m 777.01714,214.5729 0.885,-0.2875 -0.1475,-0.575 -0.7375,0.2875 0,0.575"
       id="path312"
       style="fill:#8b181e;fill-opacity:1;fill-rule:evenodd;stroke:none" />
    <path
       d="m 777.01714,213.9979 0.295,0.43125 0.1475,0 0.295,-0.71875 -0.7375,0.2875"
       id="path314"
       style="fill:#590e10;fill-opacity:1;fill-rule:evenodd;stroke:none" />
    <path
       d="m 784.98214,220.6104 0.4425,-0.575 -1.3275,-24.00625 -0.4425,-0.2875 1.3275,24.86875"
       id="path316"
       style="fill:#ee606e;fill-opacity:1;fill-rule:evenodd;stroke:none" />
    <path
       d="m 796.04464,219.31665 -3.0975,0.14375 -1.0325,-4.6 -3.6875,-0.14375 -0.1475,5.03125 -2.8025,0.2875 -1.18,-24.00625 8.9975,-0.71875 2.95,24.00625 z m -7.5225,-10.6375 1.9175,-0.2875 -1.6225,-7.04375 -0.295,7.33125"
       id="path318"
       style="fill:#ea1a29;fill-opacity:1;fill-rule:evenodd;stroke:none" />
    <path
       d="m 785.27714,220.0354 -0.295,0.575 3.3925,-0.2875 -0.295,-0.575 -2.8025,0.2875"
       id="path320"
       style="fill:#590e10;fill-opacity:1;fill-rule:evenodd;stroke:none" />
    <path
       d="m 788.37464,220.3229 -0.295,-0.575 0.1475,-5.03125 0.4425,0.575 -0.295,5.03125"
       id="path322"
       style="fill:#8b181e;fill-opacity:1;fill-rule:evenodd;stroke:none" />
    <path
       d="m 791.91464,214.8604 -3.6875,-0.14375 0.4425,0.575 3.0975,0.14375 0.1475,-0.575"
       id="path324"
       style="fill:#590e10;fill-opacity:1;fill-rule:evenodd;stroke:none" />
    <path
       d="m 792.94714,219.4604 -0.1475,0.43125 -1.0325,-4.45625 0.1475,-0.575 1.0325,4.6"
       id="path326"
       style="fill:#8b181e;fill-opacity:1;fill-rule:evenodd;stroke:none" />
    <path
       d="m 796.04464,219.31665 0.59,0.43125 -3.835,0.14375 0.1475,-0.43125 3.0975,-0.14375"
       id="path328"
       style="fill:#590e10;fill-opacity:1;fill-rule:evenodd;stroke:none" />
    <path
       d="m 793.09464,195.3104 0.59,-0.43125 2.95,24.86875 -0.59,-0.43125 -2.95,-24.00625"
       id="path330"
       style="fill:#8b181e;fill-opacity:1;fill-rule:evenodd;stroke:none" />
    <path
       d="m 793.68464,194.87915 -10.03,0.8625 0.4425,0.2875 8.9975,-0.71875 0.59,-0.43125"
       id="path332"
       style="fill:#ee606e;fill-opacity:1;fill-rule:evenodd;stroke:none" />
    <path
       d="m 790.43964,208.39165 -1.9175,0.2875 0,-0.43125 1.77,-0.2875 0.1475,0.43125"
       id="path334"
       style="fill:#ee606e;fill-opacity:1;fill-rule:evenodd;stroke:none" />
    <path
       d="m 790.43964,208.39165 -1.6225,-7.04375 0,0.14375 0.1475,1.29375 0.885,5.75 0.59,-0.14375"
       id="path336"
       style="fill:#ee606e;fill-opacity:1;fill-rule:evenodd;stroke:none" />
    <path
       d="m 788.96464,202.92915 -0.1475,-1.58125 -0.295,7.33125 0.295,-0.43125 0.1475,-5.31875"
       id="path338"
       style="fill:#8b181e;fill-opacity:1;fill-rule:evenodd;stroke:none" />
    <path
       d="m 819.20214,217.4479 -0.1475,-0.71875 0.1475,-4.8875 0.295,0.575 -0.295,5.03125"
       id="path340"
       style="fill:#8b181e;fill-opacity:1;fill-rule:evenodd;stroke:none" />
    <path
       d="m 814.92464,193.15415 -0.4425,-0.2875 1.475,24.725 0.295,-0.43125 -1.3275,-24.00625"
       id="path342"
       style="fill:#ee606e;fill-opacity:1;fill-rule:evenodd;stroke:none" />
    <path
       d="m 823.92214,192.4354 3.0975,23.8625 -3.0975,0.14375 -1.0325,-4.45625 -3.6875,-0.14375 -0.1475,4.8875 -2.8025,0.43125 -1.3275,-24.00625 8.9975,-0.71875 z m -2.655,13.08125 -1.6225,-7.04375 -0.295,7.33125 1.9175,-0.2875"
       id="path344"
       style="fill:#ea1a29;fill-opacity:1;fill-rule:evenodd;stroke:none" />
    <path
       d="m 816.25214,217.1604 -0.295,0.43125 3.245,-0.14375 -0.1475,-0.71875 -2.8025,0.43125"
       id="path346"
       style="fill:#590e10;fill-opacity:1;fill-rule:evenodd;stroke:none" />
    <path
       d="m 819.49714,212.41665 3.0975,0 0.295,-0.43125 -3.6875,-0.14375 0.295,0.575"
       id="path348"
       style="fill:#590e10;fill-opacity:1;fill-rule:evenodd;stroke:none" />
    <path
       d="m 823.92214,216.44165 -0.295,0.575 -1.0325,-4.6 0.295,-0.43125 1.0325,4.45625"
       id="path350"
       style="fill:#8b181e;fill-opacity:1;fill-rule:evenodd;stroke:none" />
    <path
       d="m 827.01964,216.2979 0.295,0.575 -3.6875,0.14375 0.295,-0.575 3.0975,-0.14375"
       id="path352"
       style="fill:#590e10;fill-opacity:1;fill-rule:evenodd;stroke:none" />
    <path
       d="m 823.92214,192.4354 0.59,-0.43125 2.8025,24.86875 -0.295,-0.575 -3.0975,-23.8625"
       id="path354"
       style="fill:#8b181e;fill-opacity:1;fill-rule:evenodd;stroke:none" />
    <path
       d="m 824.51214,192.00415 -10.03,0.8625 0.4425,0.2875 8.9975,-0.71875 0.59,-0.43125"
       id="path356"
       style="fill:#ee606e;fill-opacity:1;fill-rule:evenodd;stroke:none" />
    <path
       d="m 819.34964,205.3729 1.77,-0.2875 0.1475,0.43125 -1.9175,0.2875 0,-0.43125"
       id="path358"
       style="fill:#ee606e;fill-opacity:1;fill-rule:evenodd;stroke:none" />
    <path
       d="m 819.64464,198.61665 0.1475,1.29375 1.0325,5.60625 0.4425,0 -1.6225,-7.04375 0,0.14375"
       id="path360"
       style="fill:#ee606e;fill-opacity:1;fill-rule:evenodd;stroke:none" />
    <path
       d="m 819.79214,200.05415 -0.1475,-1.58125 -0.295,7.33125 0.295,-0.43125 0.1475,-5.31875"
       id="path362"
       style="fill:#8b181e;fill-opacity:1;fill-rule:evenodd;stroke:none" />
    <path
       d="m 800.91214,218.74165 0.4425,0.575 -3.835,0.2875 0.4425,-0.8625 2.95,0"
       id="path364"
       style="fill:#590e10;fill-opacity:1;fill-rule:evenodd;stroke:none" />
    <path
       d="m 808.87714,217.87915 0.295,0.8625 -4.8675,0.43125 0.295,-0.8625 4.2775,-0.43125"
       id="path366"
       style="fill:#590e10;fill-opacity:1;fill-rule:evenodd;stroke:none" />
    <path
       d="m 809.02464,205.6604 0.1475,1.725 0,11.35625 -0.295,-0.8625 0.1475,-12.21875"
       id="path368"
       style="fill:#ee606e;fill-opacity:1;fill-rule:evenodd;stroke:none" />
    <path
       d="m 810.94214,218.45415 0.295,-0.8625 -2.2125,-11.93125 1.9175,12.79375"
       id="path370"
       style="fill:#8b181e;fill-opacity:1;fill-rule:evenodd;stroke:none" />
    <path
       d="m 805.63214,194.59165 7.5225,-0.8625 0.4425,-0.43125 -8.4075,0.71875 0.4425,0.575"
       id="path372"
       style="fill:#ee606e;fill-opacity:1;fill-rule:evenodd;stroke:none" />
    <path
       d="m 805.63214,194.59165 -0.4425,-0.575 -0.295,12.3625 0.1475,1.725 0.59,-13.5125"
       id="path374"
       style="fill:#8b181e;fill-opacity:1;fill-rule:evenodd;stroke:none" />
    <path
       d="m 769.78964,197.17915 0.59,0.71875 8.26,-1.00625 0.1475,-0.71875 -8.9975,1.00625"
       id="path376"
       style="fill:#ee606e;fill-opacity:1;fill-rule:evenodd;stroke:none" />
    <path
       d="m 779.37714,196.31665 -0.59,0.575 2.36,1.86875 0.1475,-1.58125 0,0 -1.0325,-0.71875 -0.885,-0.14375"
       id="path378"
       style="fill:#e53950;fill-opacity:1;fill-rule:evenodd;stroke:none" />
    <path
       d="m 782.17964,198.04165 -0.7375,0.71875 -0.59,-0.43125 0,-0.575 0.295,-0.575 0,-0.14375 0.1475,0.14375 0.885,0.8625"
       id="path380"
       style="fill:#e53950;fill-opacity:1;fill-rule:evenodd;stroke:none" />
    <path
       d="m 783.06464,203.6479 c 0.1475,3.45 -0.59,6.18125 -2.36,8.05 l 3.245,8.48125 -3.9825,0.2875 -2.2125,-6.75625 -0.7375,0.2875 0.1475,6.75625 -3.0975,0.43125 -3.6875,-23.2875 7.67,-1.00625 0.4425,-0.14375 c 1.77,-0.14375 3.0975,1.00625 3.9825,3.30625 0.295,1.00625 0.4425,2.15625 0.59,3.59375 z m -7.2275,-0.14375 0.59,4.6 c 0.885,-0.14375 1.475,-1.00625 1.77,-2.875 -0.1475,-1.4375 -0.7375,-2.15625 -1.77,-2.0125 l -0.59,0.2875"
       id="path382"
       style="fill:#ea1a29;fill-opacity:1;fill-rule:evenodd;stroke:none" />
    <path
       d="m 750.76214,217.4479 0.59,5.89375 -7.8175,0.575 -3.835,-23.575 5.7525,-0.2875 1.6225,17.96875 3.6875,-0.575"
       id="path384"
       style="fill:#ea1a29;fill-opacity:1;fill-rule:evenodd;stroke:none" />
    <path
       d="m 778.78714,196.1729 -0.1475,0.575 0.295,0 0.4425,-0.43125 -0.59,-0.14375"
       id="path386"
       style="fill:#ee606e;fill-opacity:1;fill-rule:evenodd;stroke:none" />
  </g>
</svg>
